<svg width="22" height="22" viewBox="0 0 22 22" fill="none" xmlns="http://www.w3.org/2000/svg">
<path d="M8.53612 9.88889C10.9145 9.88889 12.8425 7.89904 12.8425 5.44444C12.8425 2.98985 10.9145 1 8.53612 1C6.15779 1 4.22977 2.98985 4.22977 5.44444C4.22977 7.89904 6.15779 9.88889 8.53612 9.88889Z" stroke="#474747" stroke-width="2" stroke-linecap="round" stroke-linejoin="round"/>
<path d="M1 21.0002V16.5557C1 15.3284 1.96401 14.3335 3.15318 14.3335H13.9191C15.1083 14.3335 16.0723 15.3284 16.0723 16.5557V21.0002" stroke="#474747" stroke-width="2" stroke-linecap="round" stroke-linejoin="round"/>
<path d="M17.7618 1C18.6881 1.24478 19.5091 1.80078 20.0955 2.58034C20.6818 3.35991 21 4.3187 21 5.30556C21 6.29241 20.6818 7.2512 20.0955 8.03077C19.5091 8.81033 18.6881 9.36633 17.7618 9.61111" stroke="#474747" stroke-width="2" stroke-linecap="round" stroke-linejoin="round"/>
<path d="M17.7618 13.875H18.8384C20.0276 13.875 20.9916 14.8699 20.9916 16.0972V20.5417" stroke="#474747" stroke-width="2" stroke-linecap="round" stroke-linejoin="round"/>
</svg>
