<svg width="22" height="22" viewBox="0 0 22 22" fill="none" xmlns="http://www.w3.org/2000/svg">
<path d="M11.12 11.7799C11.05 11.7699 10.96 11.7699 10.88 11.7799C9.12 11.7199 7.71997 10.28 7.71997 8.50996C7.71997 6.69997 9.18 5.22998 11 5.22998C12.81 5.22998 14.28 6.69997 14.28 8.50996C14.27 10.28 12.88 11.7199 11.12 11.7799Z" stroke="#474747" stroke-width="2" stroke-linecap="round" stroke-linejoin="round"/>
<path d="M17.74 18.38C15.96 20.01 13.6 21 11 21C8.40001 21 6.04001 20.01 4.26001 18.38C4.36001 17.44 4.96001 16.52 6.03001 15.8C8.77001 13.9801 13.25 13.9801 15.97 15.8C17.04 16.52 17.64 17.44 17.74 18.38Z" stroke="#474747" stroke-width="2" stroke-linecap="round" stroke-linejoin="round"/>
<path d="M11 20.9998C16.5228 20.9998 21 16.5227 21 10.9999C21 5.47712 16.5228 1 11 1C5.47715 1 1 5.47712 1 10.9999C1 16.5227 5.47715 20.9998 11 20.9998Z" stroke="#474747" stroke-width="2" stroke-linecap="round" stroke-linejoin="round"/>
</svg>
