<svg width="20" height="27" viewBox="0 0 20 27" fill="none" xmlns="http://www.w3.org/2000/svg">
<path d="M10 0C4.47917 0 0 4.83624 0 10.7972C0.01302 12.0765 0.227865 13.3418 0.644532 14.5368L0.61849 14.5298C1.67969 18.1078 6.92057 23.6751 9.99349 27H10V26.993C12.513 24.2796 16.4648 19.9284 18.4115 16.6386C18.8477 15.8935 19.1927 15.1835 19.388 14.5298L19.3555 14.5368C19.7721 13.3418 19.9935 12.0765 20 10.7972C20 4.83624 15.5273 0 10 0ZM10 6.6428C12.1224 6.6428 13.8477 8.5056 13.8477 10.7972C13.8477 13.0888 12.1224 14.9516 10 14.9516C7.8776 14.9445 6.15885 13.0888 6.15885 10.7972C6.15234 8.5056 7.8776 6.64983 10 6.6428Z" fill="yellow"/>
</svg>
