<svg width="20" height="20" viewBox="0 0 20 20" fill="none" xmlns="http://www.w3.org/2000/svg">
<path d="M19.707 10.305L16.6848 7.38026C16.2944 7.00232 15.6612 7.00232 15.2706 7.38026L14.6666 7.96477V0.967742C14.6666 0.43329 14.2189 0 13.6667 0H0.999999C0.447733 0 0 0.43329 0 0.967742V16.4517C0 16.9862 0.447733 17.4195 0.999999 17.4195H6.66666V19.0323C6.66666 19.5667 7.11439 20 7.66666 20H10.6889C10.9541 20 11.2085 19.898 11.396 19.7165L19.7071 11.6735C20.0976 11.2955 20.0976 10.6829 19.707 10.305ZM2 1.93548H12.6667V9.90026L6.95959 15.4232C6.93946 15.4426 6.92086 15.4631 6.90266 15.4839H2V1.93548ZM10.2747 18.0645H8.66666V16.5083L15.9778 9.4331L17.5858 10.9892L10.2747 18.0645Z" fill="#474747"/>
</svg>
