<svg width="20" height="20" viewBox="0 0 20 20" fill="none" xmlns="http://www.w3.org/2000/svg">
<g clip-path="url(#clip0_154_2)">
<path d="M18.8889 0H17.7778C17.1641 0 16.6667 0.497461 16.6667 1.11111V18.8889C16.6667 19.5025 17.1641 20 17.7778 20H18.8889C19.5025 20 20 19.5025 20 18.8889V1.11111C20 0.497461 19.5025 0 18.8889 0Z" fill="#474747"/>
<path d="M13.3333 5.55566H12.2222C11.6086 5.55566 11.1111 6.05313 11.1111 6.66678V18.889C11.1111 19.5026 11.6086 20.0001 12.2222 20.0001H13.3333C13.947 20.0001 14.4444 19.5026 14.4444 18.889V6.66678C14.4444 6.05313 13.947 5.55566 13.3333 5.55566Z" fill="#474747"/>
<path d="M7.77776 10H6.66665C6.053 10 5.55554 10.4975 5.55554 11.1111V18.8889C5.55554 19.5025 6.053 20 6.66665 20H7.77776C8.39141 20 8.88888 19.5025 8.88888 18.8889V11.1111C8.88888 10.4975 8.39141 10 7.77776 10Z" fill="#474747"/>
<path d="M2.22111 14.4443H1.11222C0.497959 14.4443 0 14.9423 0 15.5566V18.8877C0 19.5019 0.497959 19.9999 1.11222 19.9999H2.22111C2.83537 19.9999 3.33333 19.5019 3.33333 18.8877V15.5566C3.33333 14.9423 2.83537 14.4443 2.22111 14.4443Z" fill="#474747"/>
</g>
<defs>
<clipPath id="clip0_154_2">
<rect width="20" height="20" fill="white"/>
</clipPath>
</defs>
</svg>
