<svg width="20" height="20" viewBox="0 0 200 200" xmlns="http://www.w3.org/2000/svg">
  <!-- Thermometer (Fever) -->
  <rect x="30" y="20" width="15" height="60" rx="5" fill="#fff" stroke="#ff6b6b" stroke-width="2"/>
  <circle cx="37.5" cy="90" r="12" fill="#fff" stroke="#ff6b6b" stroke-width="2"/>
  <rect x="35" y="25" width="5" height="40" rx="2" fill="#ff6b6b"/>
  <circle cx="37.5" cy="65" r="3" fill="#ff6b6b"/>
  
  <!-- Cough/Sneeze -->
  <path d="M120 50 Q140 30 160 50 Q180 70 160 90 Q140 110 120 90 Q100 70 120 50Z" fill="#f8f9fa" stroke="#a5d8ff" stroke-width="2"/>
  <circle cx="130" cy="60" r="3" fill="#74c0fc"/>
  <circle cx="150" cy="80" r="3" fill="#74c0fc"/>
  
  <!-- Headache -->
  <circle cx="50" cy="140" r="25" fill="#fff" stroke="#748ffc" stroke-width="2"/>
  <path d="M40 130 Q50 120 60 130 M40 140 Q50 150 60 140" stroke="#748ffc" stroke-width="2" fill="none"/>
  
  <!-- Sore Throat -->
  <path d="M130 140 L150 140 L160 150 L150 160 L130 160 L120 150 Z" fill="#fff" stroke="#ff8787" stroke-width="2"/>
  <path d="M130 145 L150 145 M130 150 L150 150 M130 155 L150 155" stroke="#ff8787" stroke-width="2"/>
</svg>