<svg width="22" height="22" viewBox="0 0 22 22" fill="none" xmlns="http://www.w3.org/2000/svg">
<path d="M11.1521 14.0517C12.9094 14.0517 14.334 12.7086 14.334 11.0517C14.334 9.39484 12.9094 8.0517 11.1521 8.0517C9.39476 8.0517 7.97015 9.39484 7.97015 11.0517C7.97015 12.7086 9.39476 14.0517 11.1521 14.0517Z" stroke="#474747" stroke-width="1.25"/>
<path d="M13.0245 1.20394C12.6346 1.0517 12.1405 1.0517 11.1521 1.0517C10.1637 1.0517 9.66951 1.0517 9.27961 1.20394C8.75986 1.40693 8.3469 1.79628 8.1316 2.28633C8.03332 2.51004 7.99485 2.7702 7.9798 3.14969C7.95769 3.70738 7.65434 4.22359 7.14171 4.50263C6.6291 4.78166 6.00326 4.77124 5.47994 4.51046C5.12384 4.333 4.86564 4.23432 4.61101 4.20272C4.05321 4.13348 3.4891 4.27599 3.04276 4.5989C2.708 4.84108 2.4609 5.2446 1.9667 6.05163C1.4725 6.85867 1.2254 7.26218 1.17032 7.65661C1.09689 8.1825 1.24805 8.71436 1.59054 9.1352C1.74686 9.3273 1.96656 9.4887 2.30755 9.6907C2.80882 9.9877 3.13135 10.4936 3.13132 11.0517C3.13129 11.6098 2.80877 12.1156 2.30754 12.4125C1.96651 12.6146 1.74677 12.7761 1.59043 12.9682C1.24794 13.389 1.09679 13.9208 1.17023 14.4467C1.2253 14.8411 1.4724 15.2447 1.96659 16.0517C2.4608 16.8587 2.7079 17.2623 3.04265 17.5044C3.48899 17.8273 4.05311 17.9698 4.6109 17.9006C4.86551 17.869 5.1237 17.7703 5.47978 17.5929C6.00314 17.3321 6.62901 17.3217 7.14167 17.6007C7.65432 17.8798 7.95769 18.396 7.9798 18.9538C7.99486 19.3332 8.03332 19.5934 8.1316 19.8171C8.3469 20.3071 8.75986 20.6965 9.27961 20.8995C9.66951 21.0517 10.1637 21.0517 11.1521 21.0517C12.1405 21.0517 12.6346 21.0517 13.0245 20.8995C13.5443 20.6965 13.9573 20.3071 14.1725 19.8171C14.2708 19.5934 14.3093 19.3332 14.3244 18.9537C14.3464 18.396 14.6498 17.8798 15.1624 17.6007C15.675 17.3216 16.3009 17.3321 16.8243 17.5929C17.1804 17.7703 17.4385 17.8689 17.6931 17.9005C18.2509 17.9698 18.815 17.8273 19.2614 17.5044C19.5961 17.2622 19.8432 16.8587 20.3374 16.0516C20.8316 15.2446 21.0788 14.8411 21.1338 14.4467C21.2072 13.9208 21.0561 13.3889 20.7136 12.9681C20.5573 12.776 20.3375 12.6145 19.9965 12.4125C19.4953 12.1156 19.1728 11.6097 19.1728 11.0516C19.1728 10.4935 19.4953 9.9878 19.9965 9.6909C20.3376 9.4888 20.5574 9.3274 20.7137 9.1352C21.0562 8.71443 21.2073 8.18257 21.1339 7.65667C21.0789 7.26225 20.8318 6.85873 20.3375 6.0517C19.8433 5.24467 19.5962 4.84115 19.2615 4.59897C18.8151 4.27606 18.251 4.13355 17.6932 4.20279C17.4386 4.23439 17.1805 4.33306 16.8243 4.5105C16.301 4.77129 15.6751 4.78172 15.1625 4.50266C14.6498 4.22361 14.3464 3.70736 14.3244 3.14964C14.3093 2.77018 14.2708 2.51003 14.1725 2.28633C13.9573 1.79628 13.5443 1.40693 13.0245 1.20394Z" stroke="#474747" stroke-width="1.25"/>
</svg>
